<svg width="22" height="24" viewBox="0 0 22 24" fill="none" xmlns="http://www.w3.org/2000/svg">
<g clip-path="url(#clip0_3_125)">
<path fill-rule="evenodd" clip-rule="evenodd" d="M8.31802 1.36962C6.88988 2.11357 5.72146 2.74311 5.7217 2.76871C5.72234 2.8348 9.1493 4.57034 9.27093 4.56611C9.32626 4.56426 9.72765 4.37949 10.1628 4.15557L10.9542 3.74852L11.8186 4.19279L12.6828 4.63714L14.0982 4.00114C16.2309 3.04279 16.4525 2.93777 16.4177 2.90249C16.3717 2.85567 15.6067 2.44472 13.5313 1.35209C12.5283 0.824015 11.5548 0.30625 11.3679 0.20148C11.181 0.0967102 11.0026 0.01243 10.9714 0.0140614C10.9403 0.0156928 9.7462 0.625702 8.31802 1.36962ZM2.05419 4.61325L0.567501 5.38118V8.75145C0.567501 10.6051 0.587023 12.1217 0.610969 12.1217C0.634832 12.1217 1.36628 11.8046 2.23638 11.4171L3.81838 10.7125V7.15999L4.59144 7.58117C5.18716 7.90543 5.78323 8.22903 6.37966 8.55197L7.39478 9.10159L7.84649 8.89734C8.12978 8.76903 8.41251 8.63947 8.69466 8.50867C8.91269 8.40714 9.4479 8.16608 9.88398 7.97288C10.3201 7.7796 10.7237 7.58524 10.781 7.54094C10.857 7.4821 9.92983 6.96973 7.35157 5.64574C5.40811 4.64773 3.75566 3.83435 3.67946 3.83825C3.60325 3.84215 2.87188 4.19086 2.05419 4.61325ZM16.6857 4.8289C15.6731 5.286 14.844 5.67826 14.8431 5.70063C14.8422 5.72297 15.394 6.05111 16.0695 6.4297C16.7449 6.80838 17.2975 7.13845 17.2975 7.16331C17.2975 7.18812 16.6998 7.4777 15.9694 7.80697C15.2389 8.13616 13.3925 8.97 11.8662 9.65998L6.75206 11.9717C5.4656 12.5532 4.306 13.0774 4.17518 13.1366C1.54751 14.3262 0.825264 14.6562 0.72608 14.7129C0.626343 14.7699 0.603752 15.1013 0.586 16.7646L0.564819 18.7484L1.89428 19.4258L3.22371 20.1032L5.06718 19.2712C6.08111 18.8137 6.91064 18.4153 6.91064 18.386C6.91064 18.3567 6.72328 18.2347 6.49438 18.1146C6.26538 17.9945 5.79266 17.7288 5.44378 17.5239C5.09494 17.3189 4.74709 17.1309 4.67072 17.106C4.59437 17.0811 4.53302 17.0377 4.53426 17.0093C4.53553 16.981 5.34731 16.5954 6.3381 16.1524C8.26253 15.2919 9.73525 14.6288 12.897 13.199C14.3108 12.5598 15.7248 11.9209 17.1389 11.2825C18.3818 10.7215 19.8268 10.0663 20.3502 9.82652L21.3016 9.39055L21.3228 7.38416L21.3441 5.37786L19.9957 4.68575C19.254 4.30514 18.6201 3.99465 18.5868 3.99578C18.5536 3.99683 17.6981 4.37169 16.6857 4.8289ZM20.9404 12.0672C20.7417 12.1642 20.3492 12.3459 20.0682 12.471C19.7872 12.596 19.254 12.8366 18.8833 13.0057L18.2093 13.3131L18.194 15.0745C18.1855 16.0433 18.1498 16.8316 18.1147 16.8265C18.0349 16.8146 16.7718 16.1668 15.502 15.4864C14.5856 14.9954 14.528 14.9759 14.3127 15.0826C14.1882 15.1442 13.4441 15.478 12.6591 15.8243C11.8741 16.1706 11.2063 16.4765 11.1749 16.5042C11.1436 16.5319 12.7234 17.3881 14.6857 18.4071L18.2535 20.2598L19.7776 19.4714C20.6158 19.0378 21.3285 18.6424 21.3613 18.5926C21.4352 18.4808 21.4289 11.8753 21.3549 11.8843C21.3257 11.8878 21.1391 11.9701 20.9404 12.0672ZM12.5005 19.8203C12.2362 19.9339 11.9719 20.0477 11.7077 20.1617C10.9098 20.5069 11.0661 20.5184 10.1169 20.0458C9.48462 19.7311 9.21209 19.634 9.0938 19.6811C9.00507 19.7165 8.24143 20.06 7.39669 20.4446C6.55201 20.8291 5.83159 21.1437 5.79575 21.1437C5.44135 21.1437 6.03054 21.4957 8.30409 22.6426L10.9704 23.9875L12.0923 23.4336C12.7093 23.129 13.9538 22.519 14.858 22.078C15.762 21.637 16.4905 21.2647 16.4769 21.2507C16.4632 21.2367 15.7056 20.8477 14.7934 20.3863L13.1349 19.5474L12.5005 19.8203Z" fill="white"/>
</g>
<defs>
<clipPath id="clip0_3_125">
<rect width="20.8704" height="24" fill="white" transform="translate(0.564819)"/>
</clipPath>
</defs>
</svg>
