<svg width="25" height="24" viewBox="0 0 25 24" fill="none" xmlns="http://www.w3.org/2000/svg">
<g clip-path="url(#clip0_20_505)">
<path d="M21.3131 4.15557C19.7834 3.45369 18.1431 2.93658 16.428 2.6404C16.3968 2.63469 16.3656 2.64897 16.3495 2.67754C16.1385 3.05276 15.9048 3.54226 15.7412 3.927C13.8965 3.65083 12.0613 3.65083 10.2544 3.927C10.0907 3.5337 9.84858 3.05276 9.63667 2.67754C9.62058 2.64992 9.58938 2.63564 9.55814 2.6404C7.844 2.93563 6.20365 3.45275 4.67303 4.15557C4.65978 4.16129 4.64842 4.17082 4.64088 4.18319C1.52949 8.83155 0.677143 13.3657 1.09527 17.8436C1.09717 17.8655 1.10946 17.8864 1.12649 17.8997C3.1793 19.4073 5.1678 20.3225 7.11937 20.9291C7.15061 20.9386 7.1837 20.9272 7.20358 20.9015C7.66522 20.2711 8.07674 19.6063 8.42957 18.9073C8.45039 18.8664 8.43052 18.8178 8.38796 18.8016C7.73523 18.554 7.11369 18.2521 6.51582 17.9093C6.46853 17.8816 6.46475 17.814 6.50825 17.7816C6.63407 17.6873 6.75991 17.5893 6.88005 17.4902C6.90178 17.4721 6.93207 17.4683 6.95763 17.4797C10.8854 19.273 15.1376 19.273 19.019 17.4797C19.0446 17.4674 19.0749 17.4712 19.0976 17.4893C19.2177 17.5883 19.3436 17.6873 19.4703 17.7816C19.5138 17.814 19.511 17.8816 19.4637 17.9093C18.8658 18.2588 18.2443 18.554 17.5906 18.8006C17.548 18.8168 17.5291 18.8664 17.5499 18.9073C17.9103 19.6054 18.3219 20.2701 18.775 20.9005C18.7939 20.9272 18.828 20.9386 18.8592 20.9291C20.8202 20.3225 22.8087 19.4073 24.8615 17.8997C24.8795 17.8864 24.8909 17.8664 24.8928 17.8445C25.3932 12.6676 24.0546 8.17064 21.3443 4.18414C21.3377 4.17082 21.3264 4.16129 21.3131 4.15557ZM9.01612 15.117C7.83359 15.117 6.85923 14.0313 6.85923 12.6981C6.85923 11.3648 7.8147 10.2791 9.01612 10.2791C10.227 10.2791 11.1919 11.3743 11.173 12.6981C11.173 14.0313 10.2175 15.117 9.01612 15.117ZM16.9908 15.117C15.8084 15.117 14.834 14.0313 14.834 12.6981C14.834 11.3648 15.7894 10.2791 16.9908 10.2791C18.2017 10.2791 19.1666 11.3743 19.1477 12.6981C19.1477 14.0313 18.2017 15.117 16.9908 15.117Z" fill="white"/>
</g>
<defs>
<clipPath id="clip0_20_505">
<rect width="24" height="24" fill="white" transform="translate(0.996094)"/>
</clipPath>
</defs>
</svg>
