<svg width="25" height="24" viewBox="0 0 25 24" fill="none" xmlns="http://www.w3.org/2000/svg">
<path d="M5.51995 11.4073C5.51997 11.2731 5.54645 11.1402 5.59787 11.0163C5.64929 10.8924 5.72463 10.7799 5.81958 10.6852C5.91455 10.5906 6.0272 10.5156 6.15114 10.4647C6.27508 10.4138 6.40784 10.3879 6.5418 10.3885L8.23601 10.3941C8.50612 10.3941 8.76518 10.5016 8.95618 10.6929C9.14719 10.8842 9.25451 11.1438 9.25451 11.4144V17.832C9.44523 17.7753 9.69019 17.7149 9.95823 17.6516C10.1444 17.6078 10.3103 17.5023 10.4291 17.3521C10.5479 17.2019 10.6125 17.0159 10.6124 16.8243V8.86354C10.6124 8.5929 10.7197 8.33335 10.9107 8.14197C11.1017 7.95058 11.3608 7.84306 11.6309 7.843H13.3285C13.5986 7.84306 13.8577 7.95058 14.0487 8.14197C14.2397 8.33335 14.347 8.5929 14.347 8.86354V16.2519C14.347 16.2519 14.772 16.0796 15.186 15.9046C15.3398 15.8394 15.471 15.7303 15.5634 15.5909C15.6557 15.4516 15.705 15.288 15.7051 15.1207V6.31268C15.7051 6.04211 15.8124 5.78259 16.0034 5.59125C16.1943 5.39991 16.4533 5.2924 16.7234 5.29234H18.421C18.6911 5.29234 18.9502 5.39983 19.1412 5.59119C19.3322 5.78253 19.4395 6.04207 19.4395 6.31268V13.5659C20.9112 12.4974 22.4027 11.2123 23.5863 9.66693C23.7581 9.44263 23.8717 9.17922 23.917 8.90025C23.9624 8.62128 23.9381 8.33537 23.8464 8.06805C23.2985 6.48889 22.4277 5.04168 21.2895 3.81905C20.1513 2.59643 18.7709 1.6253 17.2365 0.967822C15.7022 0.310345 14.0477 -0.0190062 12.3791 0.000847016C10.7104 0.0207 9.0642 0.389321 7.5459 1.08312C6.02758 1.77691 4.67055 2.78061 3.56166 4.02997C2.45277 5.27932 1.61644 6.74684 1.10618 8.33861C0.595926 9.93035 0.422983 11.6113 0.59842 13.2739C0.773856 14.9364 1.29381 16.544 2.12501 17.9937C2.2698 18.2437 2.48283 18.4472 2.73905 18.5802C2.99527 18.7132 3.28406 18.7702 3.5715 18.7445C3.8926 18.7162 4.29238 18.6761 4.76771 18.6202C4.97462 18.5967 5.16566 18.4977 5.30441 18.3422C5.44318 18.1866 5.51997 17.9853 5.52014 17.7767L5.51995 11.4073Z" fill="white"/>
<path d="M5.48291 21.7009C7.27225 23.005 9.38685 23.7879 11.5927 23.9627C13.7986 24.1374 16.0098 23.6976 17.9816 22.6914C19.9534 21.6853 21.6089 20.1524 22.765 18.2623C23.921 16.3721 24.5326 14.1983 24.532 11.9815C24.532 11.7049 24.5192 11.4313 24.5009 11.1592C20.1186 17.7068 12.0272 20.7679 5.48328 21.6999" fill="white"/>
</svg>
