<svg width="25" height="24" viewBox="0 0 25 24" fill="none" xmlns="http://www.w3.org/2000/svg">
<path d="M5.42314 11.4074C5.42316 11.2732 5.44965 11.1403 5.50107 11.0164C5.55249 10.8925 5.62783 10.78 5.72278 10.6853C5.81774 10.5906 5.9304 10.5157 6.05434 10.4648C6.17828 10.4139 6.31104 10.388 6.445 10.3886L8.13921 10.3941C8.40931 10.3941 8.66838 10.5017 8.85937 10.693C9.05039 10.8843 9.15771 11.1439 9.15771 11.4145V17.8322C9.34843 17.7755 9.59339 17.715 9.86143 17.6518C10.0476 17.608 10.2135 17.5024 10.3323 17.3523C10.4511 17.2021 10.5157 17.0161 10.5156 16.8245V8.86362C10.5156 8.59298 10.6229 8.33342 10.8139 8.14204C11.0049 7.95065 11.264 7.84313 11.5341 7.84307H13.2317C13.5018 7.84313 13.7609 7.95065 13.9519 8.14204C14.1429 8.33342 14.2502 8.59298 14.2502 8.86362V16.2521C14.2502 16.2521 14.6752 16.0798 15.0892 15.9047C15.243 15.8396 15.3742 15.7305 15.4666 15.5911C15.5589 15.4517 15.6082 15.2882 15.6083 15.1209V6.31274C15.6083 6.04216 15.7156 5.78264 15.9066 5.5913C16.0975 5.39995 16.3565 5.29244 16.6266 5.29239H18.3242C18.5943 5.29239 18.8534 5.39987 19.0444 5.59124C19.2354 5.78258 19.3427 6.04212 19.3427 6.31274V13.566C20.8144 12.4975 22.3059 11.2124 23.4895 9.66701C23.6613 9.44271 23.7749 9.1793 23.8202 8.90033C23.8656 8.62135 23.8413 8.33544 23.7496 8.06812C23.2017 6.48895 22.3309 5.04172 21.1927 3.81908C20.0545 2.59646 18.6741 1.62531 17.1397 0.96783C15.6054 0.310348 13.9509 -0.0190064 12.2823 0.000847023C10.6136 0.0207002 8.9674 0.389324 7.4491 1.08313C5.93078 1.77693 4.57375 2.78063 3.46486 4.03001C2.35597 5.27936 1.51964 6.7469 1.00938 8.33868C0.499124 9.93044 0.326181 11.6114 0.501618 13.274C0.677055 14.9365 1.19701 16.5441 2.0282 17.9938C2.173 18.2439 2.38603 18.4474 2.64225 18.5804C2.89847 18.7134 3.18726 18.7704 3.4747 18.7447C3.79579 18.7164 4.19558 18.6763 4.67091 18.6204C4.87782 18.5968 5.06886 18.4979 5.20761 18.3423C5.34638 18.1867 5.42316 17.9855 5.42334 17.7769L5.42314 11.4074Z" fill="white"/>
<path d="M5.38611 21.7008C7.17544 23.0049 9.29005 23.7877 11.4959 23.9626C13.7018 24.1373 15.913 23.6974 17.8848 22.6913C19.8566 21.6852 21.5121 20.1523 22.6682 18.2621C23.8242 16.3719 24.4358 14.1981 24.4352 11.9813C24.4352 11.7047 24.4224 11.431 24.4041 11.1589C20.0218 17.7067 11.9304 20.7678 5.38648 21.6998" fill="white"/>
</svg>
