<svg width="24" height="24" viewBox="0 0 24 24" fill="none" xmlns="http://www.w3.org/2000/svg">
<path d="M24 12.2126C24 10.5827 22.819 9.25984 21.3638 9.25984C20.6467 9.25984 20.0141 9.56693 19.5501 10.0866C17.7575 8.64567 15.2689 7.70079 12.5272 7.58268L13.7293 1.27559L17.6309 2.19685C17.6731 3.30709 18.4956 4.20472 19.5079 4.20472C20.5413 4.20472 21.3849 3.25984 21.3849 2.10236C21.3849 0.944884 20.5413 0 19.5079 0C18.7698 0 18.1371 0.472441 17.8418 1.1811L13.4763 0.141734C13.3497 0.118112 13.2232 0.141733 13.1178 0.212599C13.0123 0.283465 12.949 0.401576 12.9069 0.543308L11.5782 7.58268C8.77329 7.67717 6.26362 8.59842 4.44991 10.0866C3.98594 9.59055 3.33216 9.25984 2.6362 9.25984C1.18102 9.25984 0 10.5827 0 12.2126C0 13.4173 0.632689 14.4331 1.56063 14.9055C1.51845 15.189 1.49736 15.4961 1.49736 15.8032C1.49736 20.3386 6.20035 24 12.0211 24C17.8418 24 22.5448 20.3386 22.5448 15.8032C22.5448 15.4961 22.5237 15.2126 22.4815 14.9291C23.3462 14.4567 24 13.4173 24 12.2126ZM5.96836 14.315C5.96836 13.1575 6.81195 12.2126 7.84534 12.2126C8.87874 12.2126 9.72232 13.1575 9.72232 14.315C9.72232 15.4724 8.87874 16.4173 7.84534 16.4173C6.81195 16.4173 5.96836 15.4724 5.96836 14.315ZM16.4499 19.8661C15.1634 21.3071 12.717 21.4016 12 21.4016C11.283 21.4016 8.81546 21.2835 7.55009 19.8661C7.36028 19.6535 7.36028 19.2992 7.55009 19.0866C7.73989 18.874 8.05624 18.874 8.24605 19.0866C9.04745 19.9843 10.7768 20.315 12.0211 20.315C13.2654 20.315 14.9736 19.9843 15.7961 19.0866C15.9859 18.874 16.3023 18.874 16.4921 19.0866C16.6397 19.3228 16.6397 19.6535 16.4499 19.8661ZM16.1125 16.4173C15.0791 16.4173 14.2355 15.4724 14.2355 14.315C14.2355 13.1575 15.0791 12.2126 16.1125 12.2126C17.1459 12.2126 17.9895 13.1575 17.9895 14.315C17.9895 15.4724 17.1459 16.4173 16.1125 16.4173Z" fill="white"/>
</svg>
