<svg width="25" height="24" viewBox="0 0 25 24" fill="none" xmlns="http://www.w3.org/2000/svg">
<path fill-rule="evenodd" clip-rule="evenodd" d="M1.67795 10.3318C8.12039 6.94489 12.4164 4.712 14.5659 3.63318C20.7031 0.552929 21.9784 0.0178568 22.8096 0.000188385C22.9924 -0.00369759 23.4012 0.0509728 23.6659 0.310224C23.8895 0.529131 23.951 0.824843 23.9805 1.03239C24.0099 1.23994 24.0465 1.71274 24.0174 2.08217C23.6848 6.2988 22.2458 16.5315 21.5136 21.2541C21.2039 23.2525 20.5939 23.9225 20.0034 23.9881C18.72 24.1306 17.7455 22.9647 16.5025 21.9815C14.5574 20.443 13.4586 19.4853 11.5706 17.984C9.38871 16.249 10.8032 15.2954 12.0466 13.737C12.372 13.3291 18.0265 7.12301 18.136 6.56002C18.1497 6.48961 18.1624 6.22715 18.0331 6.08856C17.9039 5.94997 17.7132 5.99736 17.5756 6.03505C17.3805 6.08848 14.2733 8.56668 8.25391 13.4697C7.37194 14.2005 6.57307 14.5565 5.85732 14.5379C5.06825 14.5173 3.55041 13.9995 2.42205 13.5569C1.03807 13.0141 -0.0618914 12.7271 0.0338904 11.8051C0.0837795 11.3249 0.6318 10.8338 1.67795 10.3318Z" fill="white"/>
</svg>
