<svg width="25" height="24" viewBox="0 0 25 24" fill="none" xmlns="http://www.w3.org/2000/svg">
<path d="M9.49637 5.45852C9.197 5.42138 9.18274 5.40901 9.3253 5.39663C9.59616 5.3595 10.2234 5.40901 10.6653 5.49565C11.6918 5.70607 12.6184 6.25068 13.6021 7.20375L13.8587 7.46367L14.2293 7.41416C15.8117 7.19137 17.4369 7.36465 18.7912 7.90927C19.1618 8.0578 19.7463 8.35486 19.8176 8.42912C19.8461 8.45388 19.8889 8.61478 19.9174 8.77569C20.0172 9.35743 19.9744 9.79065 19.7606 10.1248C19.6465 10.3105 19.6465 10.36 19.7178 10.5209C19.7748 10.6447 19.9459 10.7313 20.1027 10.7313C20.4449 10.7313 20.8013 10.261 20.9723 9.60498L21.0436 9.34506L21.1719 9.46883C21.899 10.1744 22.4692 11.1522 22.5547 11.8453L22.5832 12.031L22.4549 11.8701C22.2411 11.5854 22.0415 11.3997 21.7707 11.2388C21.286 10.9541 20.7727 10.8675 19.4184 10.8056C18.1924 10.7437 17.4939 10.6571 16.8096 10.459C15.6406 10.1248 15.0419 9.69163 13.6591 8.09493C13.0461 7.38941 12.6612 7.00571 12.2763 6.68389C11.4352 5.97837 10.5941 5.60705 9.49637 5.45852Z" fill="white"/>
<path d="M20.117 7.0305C20.1455 6.56015 20.2168 6.25072 20.3736 5.96603C20.4306 5.85464 20.4877 5.75562 20.5019 5.75562C20.5162 5.75562 20.4877 5.84226 20.4449 5.94128C20.3309 6.21358 20.3166 6.59729 20.3879 7.0305C20.4877 7.58749 20.5304 7.66175 21.2147 8.26825C21.5283 8.55293 21.899 8.91188 22.0416 9.06041L22.2839 9.33272L22.0416 9.13468C21.7422 8.88713 21.0579 8.41678 20.9011 8.35489C20.8013 8.30538 20.787 8.30538 20.7158 8.36727C20.6587 8.41678 20.6445 8.49105 20.6445 8.84999C20.6302 9.40698 20.5447 9.75355 20.3309 10.1125C20.2168 10.2982 20.2026 10.261 20.3023 10.0506C20.3736 9.8897 20.3879 9.81544 20.3879 9.28321C20.3879 8.20636 20.2453 7.94644 19.3757 7.51322C19.1619 7.40182 18.7912 7.24092 18.5774 7.15427C18.3493 7.06763 18.1782 6.99337 18.1925 6.99337C18.221 6.96861 19.0621 7.17903 19.39 7.3028C19.8889 7.47609 19.9745 7.48847 20.0315 7.47609C20.0743 7.43896 20.1028 7.33994 20.117 7.0305Z" fill="white"/>
<path d="M10.0809 8.87471C9.48214 8.15681 9.09723 7.04283 9.18276 6.21354L9.21127 5.95361L9.35383 5.97837C9.61044 6.0155 10.0524 6.16403 10.2662 6.27543C10.8364 6.57249 11.093 6.98095 11.3354 7.9959C11.4067 8.29296 11.5065 8.63953 11.5492 8.75093C11.6205 8.93659 11.8914 9.36981 12.1195 9.64211C12.2763 9.84015 12.1765 9.93917 11.8201 9.91442C11.2784 9.86491 10.5513 9.43169 10.0809 8.87471Z" fill="white"/>
<path d="M19.3899 14.2589C16.5672 13.2687 15.5693 12.4146 15.5693 10.9665C15.5693 10.756 15.5836 10.5828 15.5836 10.5828C15.5978 10.5828 15.6976 10.657 15.8259 10.7437C16.3962 11.1398 17.0377 11.313 18.8197 11.5358C19.8603 11.672 20.4591 11.771 21.0008 11.9319C22.7258 12.427 23.795 13.442 24.0516 14.8159C24.1228 15.212 24.0801 15.967 23.966 16.3631C23.8662 16.6725 23.5811 17.2419 23.5098 17.2542C23.4956 17.2542 23.4671 17.1924 23.4671 17.0933C23.4386 16.5735 23.1392 16.0784 22.6402 15.6947C22.0415 15.2491 21.2717 14.9149 19.3899 14.2589Z" fill="white"/>
<path d="M17.394 14.6674C17.3655 14.4818 17.2942 14.2466 17.2515 14.1476L17.1802 13.9619L17.3085 14.0981C17.4938 14.2837 17.6364 14.5065 17.7647 14.816C17.8645 15.0511 17.8645 15.1254 17.8645 15.5091C17.8645 15.8804 17.8502 15.9671 17.7647 16.1775C17.6221 16.5117 17.4511 16.7469 17.1659 17.0068C16.6527 17.4647 15.9827 17.7123 15.0276 17.8237C14.8565 17.8361 14.3718 17.8732 13.9441 17.898C12.8749 17.9475 12.1621 18.0465 11.5206 18.2445C11.4351 18.2693 11.3496 18.294 11.3353 18.2817C11.3068 18.2569 11.7487 18.0341 12.1051 17.8856C12.6041 17.6752 13.1173 17.5638 14.2435 17.3905C14.7995 17.3162 15.3697 17.2172 15.5123 17.1677C16.9236 16.784 17.6221 15.8309 17.394 14.6674Z" fill="white"/>
<path d="M18.6913 16.6602C18.3207 15.9547 18.2352 15.2863 18.4347 14.655C18.4632 14.5931 18.4918 14.5312 18.5203 14.5312C18.5488 14.5312 18.6343 14.5684 18.7199 14.6179C18.8909 14.7169 19.2473 14.8902 20.1597 15.3234C21.3144 15.868 21.9702 16.2889 22.4264 16.7716C22.8255 17.1924 23.0679 17.6751 23.1819 18.2693C23.2532 18.6035 23.2104 19.408 23.1107 19.7422C22.797 20.7943 22.0842 21.6359 21.0436 22.1187C20.8867 22.1929 20.7584 22.2424 20.7442 22.2424C20.7299 22.2424 20.787 22.1187 20.8725 21.9701C21.2146 21.3389 21.2574 20.7324 21.0008 20.0516C20.844 19.6308 20.5161 19.1233 19.8603 18.2693C19.0762 17.2791 18.8909 17.0191 18.6913 16.6602Z" fill="white"/>
<path d="M8.07073 20.4477C9.12567 19.6803 10.4229 19.1357 11.6204 18.9624C12.1337 18.8881 12.989 18.9129 13.4594 19.0243C14.215 19.1975 14.8993 19.5689 15.2557 20.0268C15.5978 20.4724 15.7546 20.8561 15.9114 21.7102C15.9685 22.0444 16.0398 22.3909 16.054 22.4652C16.1681 22.9108 16.3961 23.2574 16.6813 23.443C17.1232 23.7277 17.893 23.7401 18.6486 23.4925C18.7769 23.4554 18.8909 23.4183 18.8909 23.4307C18.9194 23.4554 18.5345 23.6782 18.2779 23.7896C17.9215 23.9505 17.6364 24 17.2515 24C16.5672 24 15.9827 23.6906 15.5123 23.0717C15.4125 22.9479 15.2129 22.589 15.0418 22.2548C14.5429 21.2522 14.2863 20.9552 13.7018 20.621C13.1886 20.3363 12.5328 20.2744 12.0339 20.4848C11.3781 20.7571 11.207 21.4874 11.6632 21.933C11.8485 22.1186 12.1907 22.2672 12.4758 22.3043C13.0033 22.3662 13.4594 22.0072 13.4594 21.5493C13.4594 21.2522 13.3311 21.0789 12.989 20.9428C12.5328 20.7695 12.0339 20.9675 12.0481 21.3512C12.0481 21.5121 12.1337 21.6112 12.319 21.6854C12.433 21.7349 12.433 21.7349 12.3475 21.7226C11.9341 21.6483 11.8343 21.2027 12.1622 20.918C12.5613 20.5714 13.4024 20.72 13.6875 21.2027C13.8016 21.4007 13.8158 21.7968 13.716 22.0444C13.4737 22.589 12.7894 22.8737 12.0909 22.7128C11.6204 22.6014 11.4209 22.49 10.8506 21.9825C9.85272 21.0913 9.46781 20.918 8.04222 20.7324L7.77136 20.6952L8.07073 20.4477Z" fill="white"/>
<path fill-rule="evenodd" clip-rule="evenodd" d="M0.571759 0.532233C3.89337 4.03507 9.01122 9.48118 9.26782 9.77824C9.48166 10.0258 9.39612 10.261 9.03973 10.4342C8.84015 10.5333 8.42673 10.6323 8.22715 10.6323C7.99905 10.6323 7.72819 10.5333 7.54287 10.3724C7.41456 10.261 6.85859 9.55544 5.60407 7.85972C4.64893 6.56008 3.83635 5.48324 3.82209 5.47086C3.76507 5.44611 3.76507 5.44611 5.50428 8.14441C6.60198 9.84013 6.95838 10.4466 6.95838 10.5209C6.95838 10.6818 6.90135 10.7684 6.67326 10.9912C6.28835 11.3626 6.11728 11.7834 5.98898 12.6622C5.84642 13.64 5.46151 14.3332 4.36381 15.509C3.7223 16.2022 3.62251 16.3259 3.46569 16.6106C3.26611 16.9572 3.20909 17.1552 3.18058 17.6008C3.15207 18.0712 3.20909 18.3682 3.3659 18.8138C3.50846 19.2099 3.66528 19.4698 4.05018 19.9773C4.37807 20.4229 4.57765 20.7571 4.57765 20.8809C4.57765 20.9799 4.60616 20.9799 5.11937 20.8809C6.34537 20.6333 7.35754 20.2125 7.91352 19.6926C8.25566 19.3708 8.34119 19.1975 8.34119 18.7519C8.34119 18.4673 8.32694 18.4054 8.2414 18.2321C8.09884 17.9598 7.82798 17.737 7.24349 17.3904C6.47368 16.9324 6.14579 16.5611 6.06026 16.066C5.98898 15.6452 6.07451 15.3605 6.50219 14.5807C6.94412 13.7762 7.05817 13.442 7.12945 12.6251C7.17221 12.1052 7.24349 11.8948 7.41456 11.7339C7.59989 11.5606 7.7567 11.4987 8.19863 11.4492C8.92568 11.3626 9.39613 11.2017 9.76678 10.8922C10.0947 10.6323 10.2372 10.3724 10.2515 9.98865L10.2657 9.70397L10.0804 9.53069C9.41038 8.8623 0.129827 0 0.0870599 0C0.072804 0 0.300898 0.235173 0.571759 0.532233ZM4.9483 18.1331C5.10512 17.8979 5.01958 17.6008 4.76298 17.4523C4.52063 17.3161 4.14998 17.378 4.14998 17.5637C4.14998 17.6132 4.17849 17.6627 4.26402 17.6875C4.39232 17.7494 4.40658 17.8112 4.30679 17.9474C4.207 18.0836 4.207 18.2073 4.3353 18.294C4.53488 18.4301 4.80574 18.3559 4.9483 18.1331Z" fill="white"/>
<path fill-rule="evenodd" clip-rule="evenodd" d="M10.7223 11.6225C10.3802 11.7092 10.0523 12.031 9.95252 12.3528C9.8955 12.5509 9.92401 12.9098 10.0238 13.0212C10.1806 13.1945 10.3232 13.244 10.7223 13.244C11.5064 13.244 12.1764 12.9469 12.2477 12.588C12.319 12.2909 12.0196 11.8825 11.6062 11.6968C11.3924 11.5978 10.9504 11.5607 10.7223 11.6225ZM11.6347 12.2414C11.7488 12.0929 11.706 11.932 11.4922 11.8206C11.1072 11.6102 10.5228 11.7834 10.5228 12.1053C10.5228 12.2662 10.8221 12.4395 11.1072 12.4395C11.2926 12.4395 11.5492 12.3404 11.6347 12.2414Z" fill="white"/>
</svg>
