<svg width="72" height="56" viewBox="0 0 72 56" fill="none" xmlns="http://www.w3.org/2000/svg">
<path d="M0 16C0 7.16344 7.16344 0 16 0H56C64.8366 0 72 7.16344 72 16V40C72 48.8366 64.8366 56 56 56H16C7.16344 56 0 48.8366 0 40V16Z" fill="#5865F2"/>
<g clip-path="url(#clip0_20_522)">
<path d="M49.8617 14.9258C47.3122 13.756 44.5783 12.8941 41.7198 12.4005C41.6678 12.391 41.6158 12.4148 41.589 12.4624C41.2374 13.0878 40.8479 13.9036 40.5752 14.5448C37.5007 14.0846 34.442 14.0846 31.4305 14.5448C31.1577 13.8893 30.7541 13.0878 30.401 12.4624C30.3741 12.4164 30.3221 12.3926 30.2701 12.4005C27.4132 12.8926 24.6793 13.7544 22.1282 14.9258C22.1061 14.9353 22.0872 14.9512 22.0746 14.9718C16.889 22.7191 15.4684 30.2759 16.1653 37.7391C16.1685 37.7756 16.1889 37.8105 16.2173 37.8327C19.6387 40.3453 22.9528 41.8706 26.2055 42.8817C26.2575 42.8976 26.3127 42.8785 26.3458 42.8357C27.1152 41.785 27.8011 40.6771 28.3891 39.512C28.4238 39.4438 28.3907 39.3628 28.3198 39.3358C27.2319 38.9231 26.196 38.42 25.1995 37.8486C25.1207 37.8026 25.1144 37.6898 25.1869 37.6359C25.3966 37.4788 25.6064 37.3153 25.8066 37.1502C25.8428 37.12 25.8933 37.1137 25.9359 37.1327C32.4821 40.1215 39.5692 40.1215 46.0383 37.1327C46.0808 37.1121 46.1313 37.1185 46.1691 37.1486C46.3694 37.3137 46.5791 37.4788 46.7904 37.6359C46.8629 37.6898 46.8581 37.8026 46.7793 37.8486C45.7829 38.4311 44.747 38.9231 43.6575 39.3342C43.5866 39.3612 43.555 39.4438 43.5897 39.512C44.1904 40.6754 44.8763 41.7833 45.6315 42.8341C45.663 42.8785 45.7198 42.8976 45.7718 42.8817C49.0402 41.8706 52.3544 40.3453 55.7757 37.8327C55.8057 37.8105 55.8246 37.7772 55.8278 37.7407C56.6618 29.1124 54.4308 21.6176 49.9137 14.9734C49.9026 14.9512 49.8838 14.9353 49.8617 14.9258ZM29.3667 33.1948C27.3958 33.1948 25.7719 31.3854 25.7719 29.1633C25.7719 26.9411 27.3643 25.1317 29.3667 25.1317C31.3848 25.1317 32.993 26.957 32.9615 29.1633C32.9615 31.3854 31.369 33.1948 29.3667 33.1948ZM42.6579 33.1948C40.6871 33.1948 39.0632 31.3854 39.0632 29.1633C39.0632 26.9411 40.6555 25.1317 42.6579 25.1317C44.6761 25.1317 46.2842 26.957 46.2527 29.1633C46.2527 31.3854 44.6761 33.1948 42.6579 33.1948Z" fill="white"/>
</g>
<defs>
<clipPath id="clip0_20_522">
<rect width="40" height="40" fill="white" transform="translate(16 8)"/>
</clipPath>
</defs>
</svg>
