<svg width="1920" height="744" viewBox="0 0 1920 744" fill="none" xmlns="http://www.w3.org/2000/svg">
<g filter="url(#filter0_f_2_18)">
<path d="M2416.37 2772.84L2417 2895.36C2417 2898.4 2414.55 2900.89 2411.52 2900.94L-365 2915C-362.78 2913.28 -360.787 2911.05 -358.25 2909.87C-272.996 2869.78 -186.247 2832.58 -102.895 2788.81C-42.918 2757.33 12.3025 2718.41 41.1585 2650.77C74.8616 2571.8 109.516 2492.74 151.418 2417.98C173.162 2379.15 209.583 2347.63 242.833 2316.56C262.041 2298.59 272.007 2290.07 261.452 2265.3C238.439 2211.28 220.048 2152.9 185.982 2106.4C122.2 2019.35 70.694 1925.82 19.2787 1831.83C-11.5705 1775.5 -39.8829 1717.71 -47.7198 1652.84C-54.1524 1599.72 -67.0629 1545.34 -61.491 1493.17C-50.8908 1393.74 -29.8717 1295.35 -11.5252 1196.88C-7.49356 1175.15 -13.5184 1166.53 -33.6316 1161.45C-63.5748 1153.87 -93.2915 1145.16 -122.51 1135.14C-152.498 1124.89 -175.556 1104.52 -185.975 1074.67C-195.488 1047.37 -209.712 1028.68 -238.931 1022.24C-244.231 1021.06 -250.98 1013.48 -251.932 1007.95C-254.831 990.893 -256.462 973.338 -255.918 956.056C-255.691 949.07 -250.165 939.454 -244.185 935.916C-227.968 926.344 -210.663 918.633 -193.54 910.468C-190.052 908.79 -189.372 904.208 -192.09 901.487C-264.797 829.409 -255.737 753.021 -203.823 676.634C-202.328 674.411 -202.645 671.418 -204.548 669.558C-228.149 646.333 -237.526 619.752 -241.422 590.721C-245.725 558.878 -230.867 534.292 -211.388 511.022C-206.541 505.216 -201.558 494.103 -203.914 488.569C-228.829 430.734 -226.201 405.877 -184.616 362.376C-171.298 348.495 -154.492 338.652 -160.652 314.792C-161.74 310.483 -154.763 302.908 -150.007 298.508C-137.232 286.76 -125.047 273.333 -110.143 265.123C-64.7979 240.038 -35.6248 198.941 -3.46188 160.748C-2.51059 159.614 -2.01227 157.527 -2.28406 156.076C-17.2783 85.0408 -5.36447 23.1236 52.0305 -24.3236C57.2399 -28.6329 62.6759 -33.2143 66.3452 -38.7483C70.7846 -45.4617 74.318 -53.0823 76.7642 -60.7936C85.7335 -88.6904 92.8003 -117.313 103.355 -144.575C107.613 -155.597 117.262 -167.573 127.591 -172.744C171.305 -194.471 214.43 -218.739 265.936 -217.469C286.095 -216.97 303.445 -222.595 306.48 -247.589C307.069 -252.533 312.958 -258.067 317.805 -261.015C343.49 -276.438 368.314 -294.492 395.902 -305.423C474.361 -336.586 557.124 -345.885 640.521 -337.992C697.644 -332.595 756.806 -333.184 810.124 -305.65C815.469 -302.883 824.801 -307.555 827.881 -301.522C829.331 -298.665 832.638 -297.349 835.491 -298.846C851.346 -307.238 871.595 -301.568 889.987 -304.788C904.393 -307.283 918.662 -313.77 932.931 -313.588C966.272 -313.18 999.25 -311.366 1028.42 -331.914C1030.1 -333.093 1032.82 -333.547 1034.99 -333.32C1068.42 -329.827 1089.17 -350.603 1109.78 -372.013C1116.49 -378.998 1123.78 -389.658 1131.66 -390.52C1170.17 -394.648 1208.76 -402.495 1245.36 -377.275C1263.67 -364.619 1287.36 -358.768 1309.42 -352.825C1333.29 -346.429 1359.7 -347.473 1382.31 -338.446C1489.21 -295.762 1589.87 -241.238 1681.19 -170.521C1687.54 -165.577 1693.83 -153.329 1692.11 -146.48C1685.81 -121.259 1696.55 -107.969 1717.89 -98.4429C1730.21 -92.9543 1741.13 -83.9275 1753.76 -79.5729C1787.92 -67.8245 1799.79 -41.7421 1804.64 -8.85568C1806.27 2.16696 1811.61 13.8246 1818.5 22.6246C1844.55 55.8286 1874.22 86.4017 1898.18 121.012C1925.18 159.977 1932.88 204.702 1917.39 250.743C1906.38 283.403 1915.17 300.186 1949.14 302.046C1974.74 303.452 2000.42 302.046 2026.06 303.044C2033.45 303.316 2043.59 305.221 2047.49 310.256C2058.5 324.545 2049.98 387.551 2036.39 400.524C2017.32 418.668 1997.7 436.268 1977.05 455.138C1975.24 456.771 1974.69 459.447 1975.78 461.625C1977.68 465.526 1979.81 470.289 1983.39 473.328C2014.74 500.272 2047.13 525.946 2078.07 553.299C2091.75 565.41 2108.55 578.383 2114.17 594.395C2137.09 659.805 2154.31 727.211 2177.32 792.621C2202.64 864.563 2159.15 938.955 2110.14 972.385C2102.39 977.693 2091.88 978.917 2082.23 981.458C2080.33 981.957 2078.29 981.458 2076.89 980.097C2075.76 979.008 2074.67 977.92 2073.54 976.831C2068.69 991.437 2059.4 1006.18 2059.81 1020.65C2061.03 1063.42 2104.3 1088.64 2109.28 1131.01L2111.45 1150.29C2111.86 1153.96 2108.6 1156.96 2104.97 1156.32C2037.79 1144.44 1977.18 1153.96 1924.18 1104.11C1921.65 1101.71 1917.48 1102.39 1915.71 1105.43C1915.35 1106.06 1915.12 1106.52 1915.12 1106.97C1914.67 1113.73 1914.4 1120.53 1914.17 1127.34C1912.45 1179.73 1905.11 1231.03 1880.2 1278.07C1833.58 1365.98 1786.43 1453.57 1739.72 1541.43C1734.15 1551.96 1728.53 1562.8 1725.23 1574.14C1712.27 1618.64 1675.58 1636.1 1632.45 1644.04C1631.05 1644.31 1628.96 1643.72 1627.83 1642.77C1600.79 1620 1592.36 1631.43 1587.11 1649.08C1580.18 1672.16 1574.24 1695.57 1568.67 1719.02C1558.52 1761.57 1552.5 1805.48 1538.36 1846.62C1513.31 1919.47 1498.32 1993.09 1497.37 2070.34C1497.05 2094.38 1490.21 2116.15 1519.25 2127.36C1522.55 2128.63 1524.37 2134.62 1526.27 2138.7C1533.56 2154.39 1539.27 2170.95 1547.97 2185.83C1601.92 2278 1663.84 2363.91 1744.8 2434.72C1770.84 2457.49 1796.48 2480.72 1822.62 2503.44C1823.03 2503.81 1823.53 2504.12 1824.02 2504.35C1857.09 2519.27 1891.02 2532.47 1923.68 2548.3C1969.8 2570.67 2014.24 2596.75 2061.08 2617.3C2139.09 2651.59 2218.63 2682.35 2297.18 2715.41C2336.32 2731.92 2374.74 2750.2 2413.47 2767.71C2415.41 2768.62 2416.68 2770.57 2416.73 2772.7L2416.37 2772.84Z" fill="#1C720D"/>
</g>
<g filter="url(#filter1_f_2_18)">
<path d="M2277.43 2566.01L2278 2676.32C2278 2679.05 2275.8 2681.3 2273.07 2681.34L-226 2694C-224.002 2692.45 -222.208 2690.45 -219.925 2689.39C-143.19 2653.28 -65.1093 2619.8 9.9133 2580.39C63.8969 2552.05 113.599 2517.01 139.572 2456.12C169.907 2385.02 201.098 2313.84 238.814 2246.54C258.385 2211.58 291.166 2183.2 321.094 2155.22C338.382 2139.05 347.352 2131.37 337.852 2109.07C317.139 2060.44 300.585 2007.88 269.923 1966.02C212.515 1887.65 166.156 1803.44 119.878 1718.82C92.1119 1668.1 66.6287 1616.07 59.575 1557.68C53.7852 1509.85 42.1649 1460.89 47.1799 1413.92C56.7209 1324.41 75.6396 1235.83 92.1527 1147.17C95.7815 1127.61 90.3587 1119.85 72.2554 1115.27C45.3044 1108.45 18.5572 1100.61 -7.74147 1091.59C-34.7333 1082.36 -55.4868 1064.02 -64.8646 1037.15C-73.427 1012.57 -86.2297 995.74 -112.528 989.941C-117.299 988.88 -123.374 982.06 -124.23 977.077C-126.84 961.722 -128.308 945.918 -127.818 930.358C-127.614 924.069 -122.64 915.411 -117.258 912.226C-102.661 903.609 -87.086 896.667 -71.6737 889.316C-68.5342 887.805 -67.9226 883.68 -70.369 881.23C-135.81 816.338 -127.655 747.566 -80.9292 678.795C-79.5837 676.794 -79.8691 674.098 -81.5816 672.424C-102.824 651.515 -111.264 627.583 -114.771 601.447C-118.644 572.778 -105.271 550.644 -87.7383 529.694C-83.3756 524.467 -78.8906 514.461 -81.0108 509.479C-103.436 457.41 -101.071 435.031 -63.6414 395.867C-51.6541 383.37 -36.5273 374.509 -42.0724 353.028C-43.051 349.148 -36.7719 342.328 -32.4908 338.367C-20.9927 327.79 -10.0248 315.701 3.38959 308.31C44.2035 285.726 70.4614 248.727 99.4103 214.341C100.267 213.32 100.715 211.441 100.47 210.135C86.9745 146.182 97.6978 90.4376 149.357 47.7207C154.046 43.8411 158.939 39.7164 162.242 34.7342C166.237 28.6901 169.418 21.8293 171.62 14.8867C179.693 -10.2288 186.053 -35.9977 195.553 -60.5415C199.386 -70.4652 208.071 -81.2466 217.367 -85.9021C256.713 -105.464 295.529 -127.312 341.888 -126.169C360.032 -125.719 375.648 -130.783 378.38 -153.285C378.91 -157.737 384.211 -162.719 388.573 -165.373C411.692 -179.258 434.035 -195.512 458.866 -205.354C529.485 -233.41 603.978 -241.782 679.041 -234.676C730.456 -229.816 783.706 -230.347 831.696 -205.558C836.507 -203.067 844.906 -207.273 847.679 -201.842C848.983 -199.269 851.96 -198.085 854.529 -199.433C868.799 -206.988 887.025 -201.883 903.579 -204.782C916.545 -207.028 929.388 -212.868 942.232 -212.705C972.241 -212.337 1001.92 -210.704 1028.18 -229.204C1029.69 -230.265 1032.14 -230.674 1034.09 -230.47C1064.18 -227.325 1082.86 -246.029 1101.41 -265.305C1107.44 -271.594 1114.01 -281.191 1121.1 -281.967C1155.76 -285.683 1190.5 -292.748 1223.44 -270.042C1239.92 -258.648 1261.24 -253.38 1281.1 -248.03C1302.58 -242.272 1326.36 -243.211 1346.7 -235.084C1442.93 -196.656 1533.52 -147.568 1615.72 -83.901C1621.43 -79.4497 1627.1 -68.4233 1625.55 -62.2567C1619.88 -39.5507 1629.54 -27.5851 1648.75 -19.009C1659.84 -14.0676 1669.66 -5.94077 1681.04 -2.02029C1711.78 8.55682 1722.47 32.0388 1726.83 61.6466C1728.3 71.5703 1733.11 82.0657 1739.31 89.9883C1762.75 119.882 1789.46 147.407 1811.03 178.567C1835.33 213.647 1842.26 253.913 1828.31 295.364C1818.41 324.768 1826.32 339.878 1856.9 341.552C1879.93 342.818 1903.05 341.552 1926.13 342.451C1932.77 342.696 1941.91 344.411 1945.41 348.944C1955.32 361.808 1947.66 418.532 1935.42 430.212C1918.26 446.547 1900.6 462.393 1882.01 479.381C1880.38 480.851 1879.89 483.261 1880.87 485.221C1882.58 488.733 1884.5 493.021 1887.72 495.757C1915.93 520.015 1945.09 543.13 1972.94 567.755C1985.25 578.659 2000.38 590.339 2005.43 604.755C2026.06 663.644 2041.56 724.329 2062.27 783.218C2085.06 847.988 2045.92 914.962 2001.8 945.06C1994.83 949.838 1985.37 950.941 1976.69 953.228C1974.97 953.677 1973.14 953.228 1971.88 952.003C1970.86 951.022 1969.88 950.042 1968.86 949.062C1964.5 962.212 1956.14 975.485 1956.5 988.512C1957.6 1027.02 1996.54 1049.73 2001.03 1087.87L2002.99 1105.23C2003.35 1108.54 2000.42 1111.23 1997.15 1110.66C1936.69 1099.96 1882.13 1108.54 1834.43 1063.65C1832.15 1061.49 1828.39 1062.1 1826.8 1064.84C1826.48 1065.41 1826.27 1065.82 1826.27 1066.23C1825.87 1072.31 1825.62 1078.44 1825.42 1084.56C1823.87 1131.73 1817.26 1177.92 1794.84 1220.27C1752.88 1299.41 1710.44 1378.27 1668.4 1457.38C1663.39 1466.85 1658.33 1476.61 1655.35 1486.82C1643.69 1526.88 1610.67 1542.61 1571.85 1549.75C1570.59 1550 1568.71 1549.47 1567.69 1548.61C1543.35 1528.11 1535.77 1538.4 1531.04 1554.29C1524.8 1575.07 1519.46 1596.14 1514.44 1617.26C1505.31 1655.56 1499.89 1695.1 1487.16 1732.14C1464.62 1797.72 1451.12 1864 1450.26 1933.55C1449.98 1955.2 1443.82 1974.8 1469.96 1984.88C1472.93 1986.03 1474.57 1991.42 1476.28 1995.09C1482.84 2009.22 1487.98 2024.13 1495.81 2037.52C1544.37 2120.51 1600.11 2197.86 1672.97 2261.6C1696.41 2282.11 1719.49 2303.01 1743.02 2323.47C1743.38 2323.8 1743.83 2324.09 1744.28 2324.29C1774.04 2337.73 1804.58 2349.61 1833.98 2363.86C1875.49 2384 1915.49 2407.48 1957.65 2425.98C2027.86 2456.85 2099.45 2484.54 2170.16 2514.31C2205.38 2529.18 2239.96 2545.63 2274.82 2561.4C2276.57 2562.22 2277.71 2563.97 2277.76 2565.89L2277.43 2566.01Z" fill="#2B7E14"/>
</g>
<g filter="url(#filter2_f_2_18)">
<path d="M2129.5 2349.13L2130 2446.41C2130 2448.82 2128.06 2450.8 2125.65 2450.84L-78 2462C-76.2383 2460.63 -74.6563 2458.87 -72.643 2457.93C-4.97885 2426.09 63.8717 2396.56 130.026 2361.81C177.628 2336.81 221.455 2305.91 244.357 2252.22C271.107 2189.51 298.611 2126.74 331.868 2067.39C349.125 2036.56 378.032 2011.53 404.421 1986.86C419.666 1972.6 427.575 1965.83 419.198 1946.17C400.934 1903.27 386.337 1856.92 359.3 1820.01C308.678 1750.9 267.799 1676.63 226.992 1602.01C202.508 1557.28 180.037 1511.4 173.817 1459.9C168.712 1417.73 158.465 1374.54 162.887 1333.13C171.3 1254.18 187.983 1176.07 202.544 1097.88C205.743 1080.63 200.962 1073.79 184.998 1069.75C161.233 1063.74 137.648 1056.83 114.458 1048.87C90.6569 1040.73 72.3567 1024.56 64.0874 1000.86C56.5372 979.178 45.2479 964.34 22.058 959.226C17.8515 958.29 12.4945 952.275 11.7394 947.882C9.43842 934.34 8.1441 920.403 8.57555 906.681C8.75531 901.135 13.1416 893.5 17.8875 890.691C30.7587 883.092 44.4929 876.969 58.0832 870.487C60.8516 869.154 61.3909 865.517 59.2337 863.356C1.52869 806.129 8.71937 745.481 49.9218 684.832C51.1083 683.068 50.8566 680.691 49.3466 679.214C30.6149 660.775 23.1726 639.67 20.0806 616.621C16.665 591.339 28.4577 571.819 43.9176 553.344C47.7646 548.734 51.7195 539.91 49.8499 535.516C30.0756 489.598 32.1609 469.862 65.166 435.324C75.7363 424.304 89.075 416.489 84.1853 397.545C83.3225 394.124 88.8593 388.109 92.6344 384.616C102.773 375.288 112.445 364.628 124.273 358.109C160.263 338.193 183.416 305.564 208.943 275.24C209.698 274.34 210.094 272.683 209.878 271.531C197.978 215.132 207.433 165.972 252.986 128.301C257.121 124.88 261.435 121.243 264.347 116.849C267.871 111.519 270.675 105.468 272.617 99.3458C279.735 77.1969 285.344 54.4718 293.721 32.8271C297.101 24.0756 304.759 14.5678 312.956 10.4622C347.651 -6.78876 381.879 -26.0565 422.758 -25.0481C438.757 -24.6519 452.527 -29.1177 454.936 -48.9616C455.403 -52.8872 460.077 -57.281 463.924 -59.6219C484.31 -71.8668 504.012 -86.2006 525.908 -94.88C588.179 -119.622 653.865 -127.005 720.055 -120.738C765.393 -116.453 812.348 -116.921 854.665 -95.0601C858.907 -92.8632 866.313 -96.5727 868.758 -91.7828C869.909 -89.5139 872.533 -88.4695 874.798 -89.6579C887.382 -96.3206 903.453 -91.8188 918.05 -94.3758C929.483 -96.3566 940.809 -101.507 952.134 -101.363C978.596 -101.038 1004.77 -99.5979 1027.92 -115.912C1029.25 -116.849 1031.41 -117.209 1033.14 -117.029C1059.67 -114.256 1076.14 -130.75 1092.5 -147.749C1097.82 -153.295 1103.61 -161.759 1109.86 -162.443C1140.42 -165.72 1171.05 -171.951 1200.1 -151.927C1214.63 -141.879 1233.43 -137.233 1250.94 -132.515C1269.89 -127.437 1290.85 -128.265 1308.79 -121.099C1393.64 -87.209 1473.53 -43.9196 1546.01 12.2269C1551.04 16.1524 1556.04 25.8763 1554.68 31.3145C1549.68 51.3385 1558.2 61.8907 1575.13 69.4538C1584.91 73.8115 1593.58 80.9784 1603.61 84.4358C1630.72 93.7635 1640.14 114.472 1643.98 140.582C1645.28 149.334 1649.52 158.589 1654.99 165.576C1675.66 191.939 1699.21 216.213 1718.23 243.692C1739.66 274.628 1745.77 310.138 1733.47 346.693C1724.73 372.623 1731.71 385.949 1758.67 387.425C1778.99 388.542 1799.37 387.425 1819.72 388.217C1825.58 388.434 1833.64 389.946 1836.73 393.944C1845.47 405.288 1838.71 455.312 1827.92 465.612C1812.78 480.018 1797.22 493.992 1780.82 508.974C1779.38 510.27 1778.95 512.395 1779.81 514.124C1781.32 517.221 1783.01 521.003 1785.85 523.416C1810.73 544.808 1836.44 565.192 1861 586.909C1871.86 596.525 1885.19 606.825 1889.65 619.538C1907.84 671.471 1921.51 724.988 1939.77 776.921C1959.87 834.04 1925.35 893.104 1886.45 919.646C1880.3 923.86 1871.96 924.832 1864.31 926.849C1862.8 927.245 1861.18 926.849 1860.06 925.769C1859.16 924.904 1858.3 924.04 1857.4 923.176C1853.56 934.772 1846.18 946.477 1846.51 957.966C1847.48 991.927 1881.81 1011.95 1885.77 1045.59L1887.49 1060.89C1887.82 1063.81 1885.23 1066.19 1882.35 1065.68C1829.03 1056.25 1780.93 1063.81 1738.86 1024.23C1736.85 1022.32 1733.54 1022.86 1732.14 1025.28C1731.85 1025.78 1731.67 1026.14 1731.67 1026.5C1731.31 1031.87 1731.1 1037.27 1730.92 1042.67C1729.55 1084.27 1723.73 1125 1703.95 1162.35C1666.96 1232.14 1629.53 1301.69 1592.46 1371.45C1588.04 1379.8 1583.58 1388.41 1580.96 1397.41C1570.67 1432.74 1541.55 1446.61 1507.32 1452.91C1506.21 1453.13 1504.56 1452.66 1503.66 1451.9C1482.19 1433.82 1475.51 1442.9 1471.34 1456.91C1465.83 1475.24 1461.12 1493.82 1456.7 1512.44C1448.65 1546.23 1443.87 1581.09 1432.65 1613.75C1412.77 1671.59 1400.87 1730.04 1400.11 1791.38C1399.86 1810.46 1394.43 1827.75 1417.48 1836.65C1420.1 1837.65 1421.54 1842.41 1423.05 1845.65C1428.84 1858.11 1433.37 1871.26 1440.27 1883.07C1483.09 1956.25 1532.24 2024.46 1596.49 2080.68C1617.16 2098.76 1637.51 2117.2 1658.26 2135.24C1658.58 2135.53 1658.98 2135.78 1659.37 2135.96C1685.62 2147.81 1712.55 2158.29 1738.47 2170.86C1775.07 2188.61 1810.34 2209.32 1847.51 2225.64C1909.43 2252.86 1972.56 2277.28 2034.9 2303.54C2065.97 2316.65 2096.46 2331.16 2127.2 2345.06C2128.74 2345.78 2129.75 2347.33 2129.78 2349.02L2129.5 2349.13Z" fill="#459221"/>
</g>
<g filter="url(#filter3_f_2_18)">
<path d="M2002.55 2160.1L2003 2246.2C2003 2248.33 2001.28 2250.09 1999.15 2250.12L49 2260C50.5591 2258.79 51.959 2257.23 53.7408 2256.4C113.621 2228.22 174.551 2202.08 233.095 2171.32C275.221 2149.2 314.007 2121.85 334.275 2074.32C357.947 2018.83 382.287 1963.27 411.718 1910.74C426.99 1883.45 452.571 1861.3 475.925 1839.46C489.416 1826.84 496.416 1820.85 489.002 1803.44C472.839 1765.48 459.921 1724.45 435.995 1691.78C391.196 1630.61 355.019 1564.88 318.907 1498.84C297.239 1459.25 277.353 1418.64 271.849 1373.06C267.331 1335.73 258.263 1297.51 262.176 1260.85C269.622 1190.98 284.385 1121.84 297.271 1052.64C300.103 1037.37 295.871 1031.32 281.744 1027.75C260.713 1022.42 239.841 1016.3 219.318 1009.26C198.255 1002.05 182.06 987.742 174.742 966.768C168.061 947.578 158.07 934.446 137.548 929.919C133.825 929.091 129.084 923.767 128.416 919.878C126.38 907.893 125.234 895.557 125.616 883.413C125.775 878.504 129.657 871.746 133.857 869.26C145.248 862.534 157.402 857.115 169.429 851.377C171.879 850.198 172.356 846.979 170.447 845.066C119.38 794.415 125.743 740.737 162.206 687.058C163.256 685.496 163.033 683.392 161.697 682.085C145.12 665.765 138.534 647.086 135.798 626.685C132.775 604.308 143.211 587.032 156.893 570.679C160.297 566.599 163.797 558.79 162.143 554.901C144.643 514.259 146.488 496.791 175.697 466.222C185.051 456.468 196.855 449.551 192.528 432.785C191.765 429.756 196.664 424.433 200.005 421.341C208.978 413.085 217.537 403.65 228.005 397.881C259.854 380.253 280.344 351.374 302.934 324.535C303.603 323.738 303.953 322.271 303.762 321.251C293.23 271.334 301.598 227.823 341.911 194.481C345.57 191.453 349.388 188.234 351.965 184.345C355.083 179.627 357.565 174.272 359.283 168.853C365.583 149.25 370.546 129.136 377.96 109.979C380.951 102.233 387.728 93.8176 394.982 90.1838C425.686 74.9153 455.976 57.8617 492.152 58.7543C506.311 59.1049 518.497 55.1523 520.629 37.5887C521.042 34.1143 525.179 30.2254 528.583 28.1535C546.624 17.3158 564.06 4.62919 583.436 -3.05288C638.544 -24.9515 696.674 -31.4861 755.25 -25.9397C795.372 -22.1465 836.925 -22.5608 874.374 -3.21225C878.129 -1.26783 884.683 -4.55103 886.847 -0.311554C887.865 1.69662 890.188 2.62102 892.192 1.56911C903.328 -4.3279 917.551 -0.34343 930.468 -2.60661C940.586 -4.35978 950.609 -8.91801 960.631 -8.79051C984.049 -8.50363 1007.21 -7.2286 1027.7 -21.6683C1028.88 -22.4971 1030.79 -22.8159 1032.32 -22.6565C1055.8 -20.202 1070.37 -34.8012 1084.85 -49.8465C1089.56 -54.7554 1094.68 -62.2462 1100.21 -62.8518C1127.26 -65.7525 1154.37 -71.267 1180.08 -53.5441C1192.93 -44.6508 1209.57 -40.5388 1225.07 -36.3631C1241.83 -31.8686 1260.38 -32.6017 1276.26 -26.2584C1351.35 3.73666 1422.05 42.0514 1486.19 91.7457C1490.64 95.2202 1495.07 103.827 1493.86 108.64C1489.44 126.363 1496.98 135.702 1511.96 142.396C1520.62 146.253 1528.28 152.597 1537.16 155.657C1561.15 163.912 1569.49 182.241 1572.89 205.351C1574.04 213.097 1577.79 221.289 1582.63 227.473C1600.92 250.806 1621.76 272.29 1638.6 296.611C1657.56 323.993 1662.97 355.422 1652.09 387.776C1644.35 410.727 1650.53 422.521 1674.39 423.828C1692.37 424.816 1710.41 423.828 1728.42 424.529C1733.6 424.72 1740.73 426.059 1743.47 429.597C1751.2 439.638 1745.22 483.913 1735.67 493.03C1722.28 505.78 1708.5 518.148 1693.99 531.408C1692.72 532.556 1692.34 534.436 1693.1 535.967C1694.44 538.708 1695.93 542.055 1698.44 544.19C1720.46 563.125 1743.21 581.166 1764.94 600.388C1774.55 608.898 1786.36 618.015 1790.3 629.267C1806.4 675.232 1818.49 722.599 1834.65 768.564C1852.44 819.119 1821.9 871.395 1787.47 894.888C1782.03 898.617 1774.65 899.478 1767.87 901.263C1766.53 901.614 1765.1 901.263 1764.12 900.307C1763.32 899.542 1762.56 898.777 1761.76 898.012C1758.36 908.276 1751.83 918.635 1752.12 928.804C1752.98 958.862 1783.36 976.585 1786.86 1006.36L1788.39 1019.9C1788.68 1022.49 1786.39 1024.59 1783.84 1024.14C1736.66 1015.79 1694.09 1022.49 1656.86 987.455C1655.08 985.766 1652.15 986.244 1650.91 988.379C1650.65 988.826 1650.5 989.144 1650.5 989.463C1650.18 994.213 1649.99 998.994 1649.83 1003.78C1648.62 1040.59 1643.46 1076.64 1625.96 1109.7C1593.22 1171.47 1560.1 1233.03 1527.3 1294.77C1523.39 1302.16 1519.44 1309.78 1517.12 1317.75C1508.02 1349.02 1482.25 1361.29 1451.95 1366.87C1450.97 1367.06 1449.51 1366.65 1448.71 1365.98C1429.71 1349.98 1423.8 1358.01 1420.11 1370.41C1415.24 1386.64 1411.07 1403.08 1407.16 1419.56C1400.03 1449.46 1395.8 1480.32 1385.87 1509.23C1368.28 1560.42 1357.74 1612.16 1357.08 1666.44C1356.85 1683.34 1352.05 1698.64 1372.44 1706.51C1374.77 1707.4 1376.04 1711.61 1377.38 1714.48C1382.5 1725.51 1386.51 1737.14 1392.62 1747.6C1430.51 1812.37 1474 1872.74 1530.86 1922.5C1549.16 1938.5 1567.17 1954.82 1585.52 1970.79C1585.81 1971.05 1586.16 1971.27 1586.51 1971.43C1609.74 1981.92 1633.57 1991.19 1656.51 2002.32C1688.9 2018.03 1720.11 2036.36 1753.01 2050.8C1807.8 2074.9 1863.67 2096.51 1918.84 2119.75C1946.33 2131.35 1973.31 2144.2 2000.52 2156.5C2001.89 2157.14 2002.78 2158.51 2002.81 2160.01L2002.55 2160.1Z" fill="#569F29"/>
</g>
<g filter="url(#filter4_f_2_18)">
<path d="M1858.62 1934.79L1859 2008.23C1859 2010.05 1857.54 2011.54 1855.72 2011.57L193 2020C194.329 2018.97 195.523 2017.63 197.042 2016.93C248.097 1992.89 300.046 1970.6 349.961 1944.36C385.879 1925.49 418.948 1902.16 436.228 1861.62C456.411 1814.29 477.164 1766.9 502.257 1722.09C515.278 1698.82 537.089 1679.92 557.001 1661.3C568.503 1650.53 574.471 1645.42 568.15 1630.57C554.37 1598.19 543.356 1563.2 522.956 1535.33C484.76 1483.15 453.915 1427.09 423.125 1370.75C404.651 1336.99 387.696 1302.35 383.003 1263.47C379.151 1231.63 371.42 1199.03 374.756 1167.76C381.104 1108.16 393.692 1049.19 404.678 990.163C407.093 977.14 403.485 971.974 391.44 968.929C373.508 964.388 355.713 959.168 338.215 953.159C320.257 947.014 306.448 934.807 300.209 916.916C294.512 900.548 285.994 889.347 268.497 885.486C265.323 884.779 261.281 880.238 260.711 876.921C258.975 866.698 257.998 856.176 258.324 845.817C258.459 841.63 261.769 835.866 265.35 833.745C275.062 828.008 285.424 823.386 295.679 818.492C297.768 817.486 298.175 814.74 296.547 813.109C253.007 769.905 258.432 724.119 289.521 678.333C290.416 677.001 290.226 675.206 289.087 674.091C274.953 660.171 269.338 644.238 267.005 626.837C264.428 607.75 273.325 593.014 284.99 579.066C287.893 575.586 290.877 568.925 289.466 565.608C274.546 530.942 276.12 516.042 301.023 489.968C308.999 481.648 319.063 475.748 315.374 461.447C314.722 458.864 318.9 454.323 321.749 451.686C329.399 444.644 336.696 436.596 345.621 431.675C372.776 416.639 390.246 392.006 409.507 369.113C410.077 368.433 410.375 367.182 410.212 366.312C401.233 323.734 408.368 286.622 442.739 258.182C445.858 255.599 449.114 252.853 451.311 249.536C453.97 245.512 456.085 240.944 457.55 236.322C462.922 219.601 467.154 202.444 473.474 186.104C476.024 179.497 481.803 172.319 487.988 169.22C514.166 156.196 539.992 141.65 570.836 142.411C582.908 142.71 593.298 139.339 595.115 124.358C595.468 121.394 598.995 118.077 601.897 116.31C617.279 107.066 632.145 96.2443 648.666 89.6918C695.651 71.013 745.214 65.4392 795.156 70.1701C829.364 73.4056 864.793 73.0521 896.722 89.5558C899.924 91.2144 905.512 88.4139 907.357 92.03C908.225 93.7429 910.205 94.5314 911.914 93.6342C921.409 88.6042 933.535 92.0029 944.549 90.0724C953.175 88.577 961.721 84.689 970.266 84.7978C990.232 85.0425 1009.98 86.13 1027.45 73.8134C1028.46 73.1065 1030.08 72.8346 1031.38 72.9706C1051.41 75.0641 1063.83 62.6116 1076.17 49.7784C1080.19 45.5913 1084.56 39.2019 1089.28 38.6853C1112.33 36.2111 1135.45 31.5074 1157.37 46.6245C1168.33 54.2102 1182.51 57.7176 1195.73 61.2793C1210.02 65.113 1225.84 64.4876 1239.37 69.8982C1303.4 95.483 1363.67 128.164 1418.36 170.552C1422.16 173.515 1425.93 180.856 1424.9 184.962C1421.13 200.079 1427.56 208.045 1440.34 213.755C1447.72 217.045 1454.25 222.456 1461.82 225.066C1482.28 232.108 1489.38 247.741 1492.29 267.453C1493.26 274.06 1496.46 281.048 1500.59 286.322C1516.19 306.225 1533.95 324.55 1548.31 345.295C1564.47 368.651 1569.09 395.459 1559.81 423.056C1553.22 442.632 1558.48 452.692 1578.82 453.806C1594.15 454.649 1609.53 453.806 1624.89 454.405C1629.31 454.568 1635.39 455.71 1637.72 458.728C1644.31 467.292 1639.21 505.058 1631.07 512.834C1619.65 523.709 1607.91 534.259 1595.53 545.569C1594.45 546.548 1594.12 548.152 1594.78 549.457C1595.91 551.796 1597.19 554.65 1599.33 556.472C1618.1 572.622 1637.5 588.011 1656.03 604.406C1664.22 611.666 1674.29 619.442 1677.65 629.039C1691.38 668.246 1701.69 708.649 1715.47 747.855C1730.63 790.977 1704.59 835.567 1675.24 855.605C1670.6 858.786 1664.3 859.52 1658.53 861.043C1657.39 861.342 1656.17 861.043 1655.32 860.227C1654.65 859.575 1654 858.922 1653.32 858.27C1650.41 867.024 1644.85 875.861 1645.1 884.534C1645.83 910.173 1671.74 925.29 1674.72 950.685L1676.02 962.24C1676.27 964.443 1674.31 966.237 1672.14 965.856C1631.91 958.733 1595.62 964.443 1563.88 934.562C1562.36 933.121 1559.86 933.529 1558.8 935.35C1558.59 935.731 1558.45 936.003 1558.45 936.275C1558.18 940.326 1558.02 944.404 1557.88 948.483C1556.85 979.886 1552.46 1010.64 1537.54 1038.83C1509.62 1091.52 1481.38 1144.03 1453.41 1196.69C1450.08 1203 1446.71 1209.5 1444.73 1216.29C1436.97 1242.97 1415 1253.43 1389.17 1258.19C1388.33 1258.36 1387.08 1258 1386.41 1257.43C1370.21 1243.78 1365.17 1250.63 1362.02 1261.21C1357.87 1275.05 1354.31 1289.08 1350.98 1303.14C1344.9 1328.64 1341.29 1354.96 1332.83 1379.62C1317.83 1423.28 1308.85 1467.41 1308.28 1513.71C1308.09 1528.12 1303.99 1541.18 1321.38 1547.89C1323.36 1548.65 1324.45 1552.24 1325.59 1554.69C1329.95 1564.1 1333.37 1574.02 1338.58 1582.94C1370.89 1638.19 1407.97 1689.68 1456.45 1732.12C1472.05 1745.77 1487.4 1759.69 1503.06 1773.31C1503.3 1773.53 1503.6 1773.72 1503.9 1773.86C1523.7 1782.8 1544.02 1790.72 1563.58 1800.2C1591.19 1813.61 1617.81 1829.24 1645.86 1841.56C1692.57 1862.11 1740.21 1880.55 1787.25 1900.37C1810.69 1910.27 1833.69 1921.22 1856.88 1931.72C1858.05 1932.26 1858.81 1933.43 1858.84 1934.71L1858.62 1934.79Z" fill="#67AC31"/>
</g>
<g filter="url(#filter5_f_2_18)">
<path d="M1700.69 1689.94L1701 1749.46C1701 1750.93 1699.81 1752.15 1698.34 1752.17L351 1759C352.077 1758.16 353.044 1757.08 354.275 1756.51C395.646 1737.03 437.742 1718.96 478.19 1697.7C507.294 1682.4 534.091 1663.5 548.093 1630.64C564.448 1592.27 581.265 1553.86 601.598 1517.55C612.15 1498.69 629.824 1483.37 645.959 1468.28C655.279 1459.55 660.115 1455.41 654.993 1443.38C643.826 1417.13 634.902 1388.77 618.371 1366.18C587.42 1323.89 562.426 1278.46 537.476 1232.8C522.506 1205.43 508.767 1177.35 504.964 1145.84C501.843 1120.04 495.578 1093.62 498.282 1068.27C503.425 1019.97 513.625 972.175 522.528 924.334C524.484 913.779 521.561 909.592 511.801 907.124C497.27 903.444 482.85 899.213 468.671 894.343C454.119 889.363 442.93 879.468 437.874 864.968C433.258 851.703 426.355 842.624 412.177 839.495C409.605 838.922 406.329 835.242 405.868 832.553C404.461 824.268 403.67 815.74 403.933 807.344C404.043 803.95 406.725 799.278 409.627 797.56C417.497 792.91 425.894 789.164 434.203 785.197C435.896 784.382 436.225 782.156 434.907 780.834C399.625 745.819 404.021 708.71 429.213 671.601C429.939 670.521 429.785 669.066 428.861 668.163C417.409 656.88 412.858 643.967 410.968 629.864C408.879 614.395 416.09 602.451 425.542 591.146C427.894 588.326 430.312 582.927 429.169 580.238C417.079 552.142 418.354 540.066 438.534 518.934C444.996 512.19 453.152 507.409 450.162 495.818C449.635 493.724 453.02 490.044 455.328 487.907C461.527 482.199 467.44 475.677 474.673 471.688C496.677 459.502 510.833 439.537 526.441 420.983C526.902 420.432 527.144 419.418 527.012 418.713C519.736 384.204 525.518 354.125 553.369 331.075C555.897 328.981 558.535 326.756 560.316 324.067C562.47 320.806 564.185 317.104 565.372 313.358C569.724 299.805 573.153 285.901 578.275 272.657C580.342 267.302 585.024 261.484 590.036 258.972C611.249 248.417 632.176 236.628 657.17 237.245C666.952 237.487 675.371 234.754 676.844 222.613C677.13 220.211 679.987 217.522 682.339 216.09C694.803 208.597 706.85 199.827 720.237 194.516C758.31 179.377 798.472 174.86 838.941 178.694C866.661 181.317 895.37 181.03 921.243 194.406C923.837 195.75 928.366 193.481 929.86 196.411C930.564 197.8 932.169 198.439 933.553 197.712C941.247 193.635 951.073 196.389 959.998 194.825C966.989 193.613 973.913 190.462 980.837 190.55C997.016 190.748 1013.02 191.63 1027.18 181.647C1027.99 181.074 1029.31 180.854 1030.36 180.964C1046.59 182.661 1056.65 172.568 1066.66 162.167C1069.91 158.774 1073.45 153.595 1077.27 153.176C1095.96 151.171 1114.69 147.359 1132.45 159.611C1141.33 165.759 1152.83 168.602 1163.53 171.488C1175.12 174.596 1187.93 174.089 1198.9 178.474C1250.78 199.21 1299.62 225.698 1343.94 260.052C1347.02 262.454 1350.07 268.404 1349.24 271.731C1346.18 283.983 1351.39 290.44 1361.75 295.068C1367.73 297.734 1373.02 302.119 1379.16 304.235C1395.73 309.942 1401.49 322.613 1403.84 338.589C1404.63 343.944 1407.23 349.607 1410.57 353.882C1423.21 370.013 1437.61 384.865 1449.24 401.679C1462.34 420.608 1466.07 442.336 1458.56 464.702C1453.22 480.569 1457.48 488.722 1473.97 489.625C1486.39 490.309 1498.85 489.625 1511.29 490.11C1514.88 490.242 1519.8 491.168 1521.69 493.614C1527.03 500.555 1522.9 531.164 1516.3 537.466C1507.05 546.281 1497.53 554.831 1487.51 563.998C1486.63 564.791 1486.36 566.091 1486.89 567.149C1487.82 569.044 1488.85 571.358 1490.59 572.834C1505.8 585.924 1521.51 598.396 1536.53 611.684C1543.17 617.568 1551.32 623.87 1554.05 631.649C1565.17 663.425 1573.52 696.171 1584.69 727.947C1596.98 762.897 1575.88 799.036 1552.09 815.277C1548.33 817.855 1543.23 818.45 1538.55 819.684C1537.63 819.926 1536.64 819.684 1535.96 819.023C1535.41 818.494 1534.88 817.965 1534.33 817.436C1531.98 824.532 1527.47 831.694 1527.67 838.723C1528.26 859.503 1549.26 871.756 1551.67 892.337L1552.73 901.703C1552.93 903.488 1551.34 904.942 1549.59 904.634C1516.99 898.86 1487.57 903.488 1461.85 879.27C1460.62 878.102 1458.6 878.432 1457.74 879.909C1457.57 880.217 1457.46 880.438 1457.46 880.658C1457.24 883.942 1457.11 887.247 1457 890.552C1456.16 916.004 1452.6 940.927 1440.51 963.779C1417.89 1006.48 1395.01 1049.04 1372.34 1091.72C1369.64 1096.83 1366.91 1102.1 1365.31 1107.61C1359.02 1129.23 1341.22 1137.71 1320.29 1141.57C1319.61 1141.7 1318.6 1141.41 1318.05 1140.95C1304.92 1129.89 1300.83 1135.44 1298.28 1144.01C1294.92 1155.23 1292.04 1166.6 1289.34 1177.99C1284.41 1198.66 1281.49 1219.99 1274.63 1239.98C1262.47 1275.37 1255.2 1311.14 1254.74 1348.66C1254.58 1360.34 1251.26 1370.92 1265.35 1376.36C1266.96 1376.98 1267.84 1379.89 1268.76 1381.87C1272.3 1389.5 1275.07 1397.54 1279.29 1404.77C1305.47 1449.55 1335.52 1491.28 1374.8 1525.68C1387.44 1536.74 1399.89 1548.03 1412.57 1559.07C1412.77 1559.24 1413.01 1559.4 1413.25 1559.51C1429.3 1566.76 1445.76 1573.17 1461.61 1580.86C1483.99 1591.72 1505.56 1604.39 1528.28 1614.38C1566.14 1631.04 1604.74 1645.98 1642.86 1662.04C1661.85 1670.06 1680.49 1678.94 1699.29 1687.45C1700.23 1687.89 1700.85 1688.84 1700.87 1689.87L1700.69 1689.94Z" fill="#8BC842"/>
</g>
<g filter="url(#filter6_f_2_18)">
<path d="M1554.76 1465.88L1555 1512.52C1555 1513.68 1554.07 1514.63 1552.92 1514.65L497 1520C497.844 1519.34 498.602 1518.5 499.567 1518.05C531.989 1502.78 564.98 1488.63 596.679 1471.96C619.488 1459.98 640.489 1445.16 651.463 1419.42C664.28 1389.36 677.459 1359.26 693.395 1330.8C701.664 1316.02 715.515 1304.02 728.16 1292.19C735.465 1285.36 739.255 1282.11 735.241 1272.68C726.489 1252.12 719.495 1229.89 706.54 1212.2C682.283 1179.06 662.695 1143.45 643.142 1107.68C631.41 1086.23 620.643 1064.23 617.662 1039.54C615.216 1019.32 610.306 998.617 612.425 978.76C616.456 940.91 624.45 903.458 631.427 865.971C632.96 857.7 630.669 854.419 623.02 852.485C611.633 849.601 600.331 846.286 589.219 842.47C577.815 838.568 569.046 830.815 565.084 819.453C561.466 809.058 556.056 801.944 544.944 799.492C542.929 799.043 540.362 796.159 540 794.053C538.898 787.56 538.277 780.878 538.484 774.299C538.57 771.64 540.672 767.979 542.946 766.632C549.114 762.989 555.695 760.054 562.207 756.946C563.533 756.307 563.791 754.563 562.758 753.527C535.107 726.089 538.553 697.011 558.296 667.933C558.864 667.087 558.744 665.948 558.02 665.24C549.045 656.399 545.479 646.28 543.997 635.229C542.36 623.108 548.011 613.749 555.419 604.891C557.262 602.681 559.157 598.45 558.261 596.343C548.786 574.328 549.785 564.865 565.6 548.306C570.665 543.022 577.057 539.275 574.714 530.193C574.3 528.552 576.953 525.669 578.762 523.994C583.62 519.522 588.255 514.411 593.923 511.285C611.167 501.737 622.262 486.092 634.494 471.554C634.855 471.122 635.045 470.328 634.942 469.775C629.239 442.735 633.77 419.165 655.597 401.103C657.579 399.463 659.646 397.719 661.041 395.612C662.73 393.057 664.073 390.156 665.004 387.221C668.415 376.601 671.102 365.706 675.116 355.328C676.736 351.132 680.405 346.574 684.333 344.605C700.958 336.334 717.359 327.096 736.946 327.58C744.613 327.77 751.211 325.629 752.365 316.114C752.589 314.232 754.829 312.126 756.672 311.003C766.44 305.132 775.881 298.26 786.372 294.099C816.211 282.236 847.685 278.696 879.402 281.701C901.126 283.756 923.625 283.531 943.902 294.012C945.935 295.066 949.483 293.287 950.655 295.584C951.206 296.671 952.464 297.172 953.549 296.602C959.579 293.408 967.28 295.566 974.274 294.34C979.752 293.391 985.179 290.921 990.606 290.991C1003.29 291.146 1015.83 291.837 1026.92 284.015C1027.56 283.566 1028.59 283.393 1029.42 283.479C1042.13 284.809 1050.02 276.9 1057.86 268.75C1060.41 266.091 1063.19 262.033 1066.18 261.705C1080.83 260.134 1095.5 257.147 1109.42 266.747C1116.38 271.565 1125.39 273.792 1133.78 276.054C1142.86 278.489 1152.91 278.092 1161.5 281.528C1202.16 297.777 1240.44 318.532 1275.17 345.451C1277.58 347.333 1279.98 351.995 1279.32 354.603C1276.93 364.203 1281.01 369.263 1289.13 372.889C1293.81 374.978 1297.96 378.414 1302.77 380.072C1315.76 384.544 1320.27 394.473 1322.12 406.991C1322.74 411.187 1324.77 415.625 1327.39 418.975C1337.29 431.615 1348.58 443.253 1357.69 456.427C1367.96 471.26 1370.89 488.285 1365 505.812C1360.81 518.244 1364.15 524.633 1377.07 525.341C1386.81 525.876 1396.57 525.341 1406.33 525.721C1409.13 525.824 1412.99 526.549 1414.47 528.466C1418.66 533.905 1415.42 557.889 1410.25 562.828C1403 569.735 1395.54 576.434 1387.69 583.618C1387 584.239 1386.79 585.258 1387.2 586.087C1387.93 587.572 1388.74 589.385 1390.1 590.542C1402.02 600.798 1414.34 610.572 1426.1 620.984C1431.31 625.594 1437.7 630.533 1439.83 636.628C1448.55 661.527 1455.1 687.186 1463.85 712.085C1473.48 739.471 1456.94 767.789 1438.3 780.515C1435.35 782.536 1431.36 783.002 1427.69 783.969C1426.96 784.159 1426.19 783.969 1425.65 783.451C1425.22 783.036 1424.81 782.622 1424.38 782.208C1422.54 787.768 1419.01 793.379 1419.16 798.888C1419.63 815.171 1436.08 824.771 1437.97 840.899L1438.8 848.237C1438.95 849.636 1437.71 850.776 1436.34 850.534C1410.79 846.01 1387.74 849.636 1367.58 830.659C1366.62 829.744 1365.03 830.003 1364.36 831.16C1364.22 831.402 1364.14 831.574 1364.14 831.747C1363.96 834.32 1363.86 836.91 1363.77 839.5C1363.12 859.444 1360.33 878.973 1350.85 896.879C1333.13 930.343 1315.19 963.686 1297.43 997.132C1295.31 1001.14 1293.17 1005.27 1291.92 1009.58C1286.99 1026.52 1273.04 1033.17 1256.63 1036.19C1256.1 1036.29 1255.31 1036.07 1254.88 1035.71C1244.59 1027.04 1241.39 1031.39 1239.39 1038.11C1236.75 1046.9 1234.5 1055.81 1232.38 1064.73C1228.52 1080.93 1226.23 1097.64 1220.85 1113.31C1211.33 1141.04 1205.62 1169.06 1205.26 1198.47C1205.14 1207.62 1202.54 1215.91 1213.58 1220.17C1214.84 1220.66 1215.53 1222.94 1216.25 1224.49C1219.03 1230.46 1221.2 1236.77 1224.51 1242.43C1245.02 1277.52 1268.57 1310.22 1299.36 1337.17C1309.27 1345.84 1319.02 1354.68 1328.96 1363.33C1329.11 1363.47 1329.3 1363.59 1329.49 1363.68C1342.07 1369.36 1354.97 1374.39 1367.39 1380.41C1384.93 1388.92 1401.83 1398.85 1419.64 1406.68C1449.31 1419.73 1479.56 1431.44 1509.43 1444.02C1524.32 1450.31 1538.93 1457.27 1553.66 1463.93C1554.4 1464.28 1554.88 1465.02 1554.9 1465.83L1554.76 1465.88Z" fill="#A7DE50"/>
</g>
<path d="M1434.81 1281.17L1435 1317.22C1435 1318.11 1434.28 1318.85 1433.39 1318.86L617 1323C617.653 1322.49 618.239 1321.84 618.985 1321.49C644.052 1309.69 669.559 1298.75 694.068 1285.87C711.703 1276.6 727.939 1265.15 736.424 1245.25C746.334 1222.01 756.523 1198.75 768.844 1176.75C775.238 1165.32 785.947 1156.05 795.723 1146.9C801.371 1141.62 804.301 1139.11 801.198 1131.82C794.431 1115.92 789.023 1098.74 779.007 1085.06C760.253 1059.45 745.108 1031.92 729.991 1004.27C720.92 987.69 712.595 970.685 710.291 951.597C708.399 935.967 704.603 919.963 706.242 904.613C709.358 875.354 715.539 846.403 720.933 817.425C722.119 811.031 720.347 808.495 714.433 807C705.629 804.771 696.891 802.208 688.3 799.259C679.483 796.242 672.703 790.249 669.639 781.466C666.842 773.431 662.66 767.931 654.069 766.036C652.51 765.689 650.526 763.46 650.246 761.831C649.393 756.813 648.914 751.647 649.074 746.561C649.14 744.506 650.765 741.676 652.524 740.635C657.292 737.819 662.38 735.549 667.415 733.147C668.441 732.653 668.64 731.305 667.841 730.504C646.463 709.294 649.127 686.817 664.391 664.339C664.831 663.685 664.738 662.804 664.178 662.257C657.239 655.423 654.482 647.601 653.336 639.058C652.071 629.688 656.439 622.453 662.167 615.606C663.592 613.897 665.057 610.627 664.365 608.999C657.039 591.98 657.811 584.666 670.039 571.865C673.955 567.781 678.896 564.884 677.085 557.863C676.765 556.595 678.817 554.366 680.215 553.072C683.971 549.614 687.554 545.663 691.936 543.248C705.269 535.866 713.847 523.773 723.304 512.534C723.584 512.201 723.73 511.587 723.65 511.159C719.242 490.257 722.745 472.037 739.621 458.075C741.153 456.807 742.751 455.459 743.83 453.831C745.135 451.855 746.174 449.613 746.893 447.344C749.531 439.135 751.608 430.712 754.712 422.69C755.964 419.447 758.801 415.923 761.838 414.401C774.691 408.008 787.372 400.866 802.516 401.24C808.443 401.387 813.545 399.732 814.437 392.377C814.61 390.922 816.342 389.294 817.767 388.426C825.319 383.888 832.619 378.576 840.73 375.359C863.8 366.189 888.135 363.453 912.656 365.775C929.452 367.363 946.848 367.19 962.525 375.292C964.097 376.106 966.841 374.731 967.746 376.507C968.173 377.348 969.145 377.735 969.984 377.294C974.646 374.825 980.6 376.493 986.008 375.546C990.243 374.812 994.439 372.903 998.635 372.956C1008.44 373.076 1018.13 373.61 1026.71 367.564C1027.21 367.217 1028 367.083 1028.64 367.15C1038.47 368.178 1044.57 362.064 1050.63 355.764C1052.61 353.709 1054.75 350.572 1057.07 350.318C1068.39 349.104 1079.74 346.794 1090.5 354.216C1095.88 357.94 1102.85 359.662 1109.33 361.41C1116.35 363.292 1124.12 362.985 1130.77 365.642C1162.2 378.202 1191.8 394.246 1218.65 415.055C1220.51 416.51 1222.36 420.114 1221.86 422.13C1220.01 429.551 1223.16 433.462 1229.44 436.265C1233.06 437.88 1236.27 440.536 1239.99 441.818C1250.03 445.275 1253.52 452.95 1254.94 462.627C1255.42 465.87 1257 469.301 1259.02 471.89C1266.68 481.661 1275.4 490.657 1282.45 500.842C1290.39 512.307 1292.65 525.468 1288.1 539.016C1284.86 548.627 1287.44 553.565 1297.43 554.113C1304.96 554.526 1312.51 554.113 1320.05 554.406C1322.22 554.486 1325.21 555.047 1326.35 556.529C1329.59 560.733 1327.08 579.273 1323.09 583.091C1317.48 588.43 1311.71 593.609 1305.64 599.162C1305.11 599.642 1304.95 600.43 1305.27 601.07C1305.83 602.218 1306.45 603.62 1307.5 604.514C1316.72 612.443 1326.24 619.997 1335.34 628.046C1339.36 631.61 1344.31 635.428 1345.96 640.139C1352.7 659.387 1357.76 679.222 1364.53 698.469C1371.97 719.639 1359.18 741.529 1344.77 751.367C1342.49 752.928 1339.4 753.289 1336.57 754.036C1336.01 754.183 1335.41 754.036 1335 753.636C1334.66 753.315 1334.34 752.995 1334.01 752.675C1332.59 756.973 1329.85 761.311 1329.97 765.569C1330.33 778.156 1343.05 785.577 1344.52 798.044L1345.16 803.717C1345.28 804.798 1344.32 805.679 1343.25 805.492C1323.5 801.995 1305.68 804.798 1290.1 790.129C1289.35 789.421 1288.12 789.621 1287.6 790.516C1287.5 790.703 1287.43 790.836 1287.43 790.97C1287.3 792.958 1287.22 794.961 1287.15 796.963C1286.65 812.379 1284.49 827.476 1277.16 841.318C1263.46 867.186 1249.59 892.96 1235.86 918.815C1234.22 921.912 1232.57 925.102 1231.6 928.439C1227.79 941.533 1217 946.672 1204.32 949.008C1203.9 949.088 1203.29 948.914 1202.96 948.634C1195.01 941.933 1192.53 945.297 1190.98 950.489C1188.95 957.283 1187.2 964.171 1185.56 971.072C1182.58 983.592 1180.81 996.513 1176.65 1008.62C1169.29 1030.06 1164.88 1051.72 1164.6 1074.45C1164.5 1081.52 1162.49 1087.93 1171.03 1091.23C1172 1091.6 1172.54 1093.36 1173.1 1094.57C1175.24 1099.18 1176.92 1104.06 1179.48 1108.43C1195.34 1135.56 1213.55 1160.84 1237.35 1181.67C1245.01 1188.37 1252.55 1195.21 1260.23 1201.9C1260.35 1202 1260.5 1202.1 1260.65 1202.16C1270.37 1206.55 1280.35 1210.44 1289.95 1215.1C1303.51 1221.68 1316.57 1229.35 1330.35 1235.4C1353.28 1245.49 1376.67 1254.54 1399.77 1264.27C1411.28 1269.13 1422.57 1274.51 1433.96 1279.66C1434.53 1279.93 1434.91 1280.5 1434.92 1281.13L1434.81 1281.17Z" fill="#CAF861"/>
<defs>
<filter id="filter0_f_2_18" x="-397" y="-427" width="2846" height="3374" filterUnits="userSpaceOnUse" color-interpolation-filters="sRGB">
<feFlood flood-opacity="0" result="BackgroundImageFix"/>
<feBlend mode="normal" in="SourceGraphic" in2="BackgroundImageFix" result="shape"/>
<feGaussianBlur stdDeviation="16" result="effect1_foregroundBlur_2_18"/>
</filter>
<filter id="filter1_f_2_18" x="-254" y="-314" width="2560" height="3036" filterUnits="userSpaceOnUse" color-interpolation-filters="sRGB">
<feFlood flood-opacity="0" result="BackgroundImageFix"/>
<feBlend mode="normal" in="SourceGraphic" in2="BackgroundImageFix" result="shape"/>
<feGaussianBlur stdDeviation="14" result="effect1_foregroundBlur_2_18"/>
</filter>
<filter id="filter2_f_2_18" x="-102" y="-190" width="2256" height="2676" filterUnits="userSpaceOnUse" color-interpolation-filters="sRGB">
<feFlood flood-opacity="0" result="BackgroundImageFix"/>
<feBlend mode="normal" in="SourceGraphic" in2="BackgroundImageFix" result="shape"/>
<feGaussianBlur stdDeviation="12" result="effect1_foregroundBlur_2_18"/>
</filter>
<filter id="filter3_f_2_18" x="33" y="-82" width="1986" height="2358" filterUnits="userSpaceOnUse" color-interpolation-filters="sRGB">
<feFlood flood-opacity="0" result="BackgroundImageFix"/>
<feBlend mode="normal" in="SourceGraphic" in2="BackgroundImageFix" result="shape"/>
<feGaussianBlur stdDeviation="8" result="effect1_foregroundBlur_2_18"/>
</filter>
<filter id="filter4_f_2_18" x="181" y="24" width="1690" height="2008" filterUnits="userSpaceOnUse" color-interpolation-filters="sRGB">
<feFlood flood-opacity="0" result="BackgroundImageFix"/>
<feBlend mode="normal" in="SourceGraphic" in2="BackgroundImageFix" result="shape"/>
<feGaussianBlur stdDeviation="6" result="effect1_foregroundBlur_2_18"/>
</filter>
<filter id="filter5_f_2_18" x="343" y="143" width="1366" height="1624" filterUnits="userSpaceOnUse" color-interpolation-filters="sRGB">
<feFlood flood-opacity="0" result="BackgroundImageFix"/>
<feBlend mode="normal" in="SourceGraphic" in2="BackgroundImageFix" result="shape"/>
<feGaussianBlur stdDeviation="4" result="effect1_foregroundBlur_2_18"/>
</filter>
<filter id="filter6_f_2_18" x="493" y="256" width="1066" height="1268" filterUnits="userSpaceOnUse" color-interpolation-filters="sRGB">
<feFlood flood-opacity="0" result="BackgroundImageFix"/>
<feBlend mode="normal" in="SourceGraphic" in2="BackgroundImageFix" result="shape"/>
<feGaussianBlur stdDeviation="2" result="effect1_foregroundBlur_2_18"/>
</filter>
</defs>
</svg>
