<svg width="72" height="56" viewBox="0 0 72 56" fill="none" xmlns="http://www.w3.org/2000/svg">
<path d="M0 16C0 7.16344 7.16344 0 16 0H56C64.8366 0 72 7.16344 72 16V40C72 48.8366 64.8366 56 56 56H16C7.16344 56 0 48.8366 0 40V16Z" fill="#FF4500"/>
<path d="M51.9719 28.2525C51.9719 26.3157 50.4 24.7437 48.4632 24.7437C47.5088 24.7437 46.6667 25.1087 46.0491 25.7262C43.6632 24.0139 40.3509 22.8911 36.7018 22.7508L38.3018 15.256L43.4947 16.3508C43.5509 17.6701 44.6456 18.7367 45.993 18.7367C47.3684 18.7367 48.4912 17.6139 48.4912 16.2385C48.4912 14.863 47.3684 13.7402 45.993 13.7402C45.0105 13.7402 44.1684 14.3016 43.7754 15.1437L37.9649 13.9087C37.7965 13.8806 37.6281 13.9087 37.4877 13.9929C37.3474 14.0771 37.2632 14.2174 37.207 14.3858L35.4386 22.7508C31.7053 22.863 28.3649 23.9578 25.9509 25.7262C25.3333 25.1367 24.4632 24.7437 23.5368 24.7437C21.6 24.7437 20.0281 26.3157 20.0281 28.2525C20.0281 29.6841 20.8702 30.8911 22.1053 31.4525C22.0491 31.7894 22.0211 32.1543 22.0211 32.5192C22.0211 37.9087 28.2807 42.2595 36.0281 42.2595C43.7754 42.2595 50.0351 37.9087 50.0351 32.5192C50.0351 32.1543 50.007 31.8174 49.9509 31.4806C51.1018 30.9192 51.9719 29.6841 51.9719 28.2525ZM27.9719 30.7508C27.9719 29.3753 29.0947 28.2525 30.4702 28.2525C31.8456 28.2525 32.9684 29.3753 32.9684 30.7508C32.9684 32.1262 31.8456 33.249 30.4702 33.249C29.0947 33.249 27.9719 32.1262 27.9719 30.7508ZM41.9228 37.3473C40.2105 39.0595 36.9544 39.1718 36 39.1718C35.0456 39.1718 31.7614 39.0315 30.0772 37.3473C29.8246 37.0946 29.8246 36.6736 30.0772 36.4209C30.3298 36.1683 30.7509 36.1683 31.0035 36.4209C32.0702 37.4876 34.3719 37.8806 36.0281 37.8806C37.6842 37.8806 39.9579 37.4876 41.0526 36.4209C41.3053 36.1683 41.7263 36.1683 41.979 36.4209C42.1754 36.7016 42.1754 37.0946 41.9228 37.3473ZM41.4737 33.249C40.0983 33.249 38.9754 32.1262 38.9754 30.7508C38.9754 29.3753 40.0983 28.2525 41.4737 28.2525C42.8491 28.2525 43.9719 29.3753 43.9719 30.7508C43.9719 32.1262 42.8491 33.249 41.4737 33.249Z" fill="white"/>
</svg>
