<svg width="72" height="56" viewBox="0 0 72 56" fill="none" xmlns="http://www.w3.org/2000/svg">
<path d="M0 16C0 7.16344 7.16344 0 16 0H56C64.8366 0 72 7.16344 72 16V40C72 48.8366 64.8366 56 56 56H16C7.16344 56 0 48.8366 0 40V16Z" fill="#05A3C9"/>
<path fill-rule="evenodd" clip-rule="evenodd" d="M24.7598 26.4988C31.7563 23.4506 36.4217 21.441 38.756 20.4701C45.4211 17.6978 46.806 17.2163 47.7087 17.2004C47.9073 17.1969 48.3512 17.2461 48.6387 17.4794C48.8815 17.6764 48.9483 17.9426 48.9803 18.1293C49.0123 18.3161 49.0521 18.7417 49.0204 19.0741C48.6593 22.8691 47.0964 32.0785 46.3013 36.3289C45.9649 38.1274 45.3025 38.7304 44.6612 38.7895C43.2674 38.9177 42.2091 37.8684 40.8592 36.9835C38.7469 35.5989 37.5536 34.7369 35.5032 33.3858C33.1337 31.8243 34.6698 30.9661 36.0202 29.5635C36.3736 29.1964 42.5143 23.6109 42.6332 23.1042C42.6481 23.0408 42.6619 22.8046 42.5215 22.6799C42.3812 22.5552 42.1741 22.5978 42.0246 22.6317C41.8128 22.6798 38.4383 24.9102 31.9013 29.3229C30.9435 29.9806 30.0759 30.3011 29.2986 30.2843C28.4416 30.2657 26.7933 29.7997 25.5679 29.4014C24.0649 28.9128 22.8703 28.6545 22.9743 27.8248C23.0285 27.3926 23.6237 26.9506 24.7598 26.4988Z" fill="white"/>
</svg>
