<svg width="72" height="56" viewBox="0 0 72 56" fill="none" xmlns="http://www.w3.org/2000/svg">
<path d="M0 16C0 7.16344 7.16344 0 16 0H56C64.8366 0 72 7.16344 72 16V40C72 48.8366 64.8366 56 56 56H16C7.16344 56 0 48.8366 0 40V16Z" fill="#1DA1F2"/>
<path d="M28.5792 44.2511C43.6736 44.2511 51.9296 31.7455 51.9296 20.9007C51.9296 20.5455 51.9296 20.1919 51.9056 19.8399C53.5117 18.6782 54.8982 17.2397 56 15.5919C54.5023 16.2559 52.9134 16.6912 51.2864 16.8831C52.9997 15.8576 54.2819 14.2444 54.8944 12.3439C53.2835 13.2999 51.5211 13.9736 49.6832 14.3359C48.4459 13.0202 46.8094 12.149 45.027 11.857C43.2446 11.5651 41.4157 11.8688 39.8233 12.721C38.2309 13.5732 36.9637 14.9265 36.2179 16.5715C35.4721 18.2164 35.2892 20.0613 35.6976 21.8207C32.4348 21.657 29.2429 20.8091 26.3291 19.3319C23.4153 17.8547 20.8446 15.7813 18.784 13.2463C17.7345 15.053 17.4131 17.1917 17.8852 19.227C18.3572 21.2623 19.5872 23.0412 21.3248 24.2015C20.0187 24.1632 18.7411 23.8109 17.6 23.1743V23.2783C17.6005 25.1731 18.2564 27.0093 19.4565 28.4756C20.6565 29.9419 22.3268 30.9479 24.184 31.3231C22.9758 31.6527 21.7081 31.7008 20.4784 31.4639C21.003 33.0944 22.024 34.5203 23.3987 35.5421C24.7734 36.564 26.433 37.1307 28.1456 37.1631C26.4441 38.5006 24.4955 39.4894 22.4115 40.0731C20.3274 40.6568 18.1487 40.8238 16 40.5647C19.7531 42.9731 24.1199 44.2506 28.5792 44.2447" fill="white"/>
</svg>
